<svg width="80" height="28" viewBox="0 0 80 28" fill="none" xmlns="http://www.w3.org/2000/svg">
<g clip-path="url(#clip0)">
<path fill-rule="evenodd" clip-rule="evenodd" d="M14.0457 7.19497C14.5127 8.02841 15.54 8.39556 16.4651 8.10989C17.731 7.72017 18.3053 6.29281 17.6658 5.15211C16.4401 2.96985 13.9615 0.978027 9.44838 0.978027C4.61354 0.978027 0.620581 4.49438 0.620581 8.76368C0.620581 12.5667 3.2575 15.1141 7.21337 15.9034L10.8756 16.6573C13.1106 17.1236 14.3554 18.4508 14.3554 20.101C14.3554 22.0742 12.7448 23.6174 9.63079 23.6174C6.75033 23.6174 4.93626 22.1665 4.13947 20.2856C3.73256 19.3245 2.65615 18.8141 1.63385 19.0997L1.5216 19.1311C0.333938 19.4639 -0.306499 20.7264 0.145515 21.8523C1.33117 24.8052 4.33491 27.4911 9.63079 27.4911C15.5641 27.4911 18.8244 23.7244 18.8244 19.7781C18.8244 16.19 16.3699 13.356 11.7916 12.4587L8.05526 11.7058C6.04074 11.2748 5.01544 10.0556 5.01544 8.44071C5.01544 6.50289 6.84755 4.78103 9.48446 4.78103C11.949 4.78103 13.3481 5.95119 14.0457 7.19497ZM22.9297 11.5447V24.8905C22.9297 26.0302 23.8809 26.954 25.0545 26.953C26.2281 26.953 27.1793 26.0302 27.1793 24.8905V11.5447C27.1793 10.4059 26.2281 9.48218 25.0545 9.48218C23.8809 9.48218 22.9297 10.405 22.9297 11.5447ZM35.493 18.1996C35.493 21.7159 37.8001 23.6891 40.4741 23.6891C42.4095 23.6891 43.6192 22.7693 44.3117 21.763C44.8139 21.0337 45.774 20.7558 46.6189 21.0553C47.8437 21.4901 48.3267 22.944 47.5861 23.9954C46.2381 25.9096 43.8918 27.4911 40.4741 27.4911C35.2364 27.4911 31.2434 23.5085 31.2434 18.1986C31.2434 12.817 35.2364 8.94238 40.3639 8.94238C43.8908 8.94238 46.2501 10.5317 47.544 12.4852C48.2425 13.5405 47.7635 14.9581 46.5578 15.39L46.4896 15.4146C45.6177 15.7267 44.6184 15.4303 44.1243 14.6606C43.4598 13.625 42.2982 12.7817 40.401 12.7817C37.8001 12.7827 35.493 14.6842 35.493 18.1996ZM52.4528 3.05979V24.8726C52.4528 26.0221 53.416 26.9537 54.6047 26.9537C55.7933 26.9537 56.7565 26.0221 56.7565 24.8726V3.05979C56.7565 1.91025 55.7933 0.978638 54.6047 0.978638C53.416 0.978638 52.4528 1.91025 52.4528 3.05979ZM79.2998 18.1993C79.2998 23.5809 75.381 27.4918 70.033 27.4918C64.7221 27.4918 60.8023 23.5818 60.8023 18.1993C60.8023 12.8541 64.7221 8.94312 70.033 8.94312C75.381 8.9441 79.2998 12.8541 79.2998 18.1993ZM75.0142 18.1993C75.0142 14.576 72.6699 12.7108 70.033 12.7108C67.4322 12.7108 65.0519 14.576 65.0519 18.1993C65.0519 21.8227 67.4332 23.7605 70.033 23.7605C72.6699 23.7605 75.0142 21.859 75.0142 18.1993ZM23.6361 5.9246C23.593 5.33363 23.7814 4.92427 24.4189 4.28422L26.5747 2.24725C27.156 1.67788 27.8255 1.03587 28.5692 0.982855C29.8109 0.895486 30.3301 2.01459 30.3782 2.67133C30.4243 3.29666 30.0675 3.94947 29.3619 4.52768L26.719 6.72957C25.9854 7.3441 25.6466 7.40104 25.3369 7.42263C24.6243 7.47368 23.7183 7.04174 23.6361 5.9246Z" fill="black"/>
</g>
<defs>
<clipPath id="clip0">
<rect width="80" height="27" fill="white" transform="translate(0 0.5)"/>
</clipPath>
</defs>
</svg>
