<svg version="1.1" id="Layer_1" xmlns="http://www.w3.org/2000/svg" x="0" y="0" viewBox="0 0 603.7 349.4" xml:space="preserve"><style>.st0{fill:#1b365d}</style><path class="st0" d="M349.9 23.8v137.3c0 6.6 0 6.6-6.4 6.6h-8.9v-6.6c0-38.6-.1-77.2.1-115.8 0-5.2-1.5-6.3-6.5-6.3-92.2.1-184.4 0-276.7 0h-5.8v268.5h303.6v15.4H29.8V23.7c106.6.1 212.9.1 320.1.1z"/><path class="st0" d="M96.2 282.6c6.3-15.9 12.2-31.1 18.2-46.3 9-23 18.1-45.9 26.9-68.9 1.2-3.2 2.8-4.3 6.1-4.1 6 .3 12-.1 18 .2 1.6.1 3.9 1.4 4.4 2.7 15.2 38.4 30.2 76.9 45.3 115.4 0 .1-.1.3-.2 1.1-6.6 0-13.4.1-20.1-.1-1.1 0-2.7-1.7-3.2-2.9-2.3-5.5-4.2-11.3-6.7-16.7-.7-1.5-2.9-3.2-4.5-3.2-16.3-.2-32.7-.2-49 0-1.5 0-3.8 1.8-4.4 3.3-2.4 5.5-4.2 11.2-6.6 16.7-.6 1.3-2.4 2.8-3.8 2.8-6.5.1-13 0-20.4 0zm37.8-41.4h43.9c-7.3-19.3-14.3-38-21.4-56.7h-1.1c-7.1 18.7-14.2 37.4-21.4 56.7zm342.6 4.1h-66.2c.9 9.4 4.9 16.4 12.7 20.6 14.2 7.6 27.3 3.9 39.9-5.3 2.6 3.7 5.2 7.4 8 11.5-5.7 5.5-12.5 8.7-19.9 10.8-21.2 6-43.4-1.7-53.5-18.9-15-25.6-3.7-62 27.7-68.9 23.8-5.3 46.1 9.4 50.4 33.6.7 3.9.8 7.9 1.1 11.9.1 1.4-.1 2.9-.2 4.7zM459 232.2c.7-12.9-10-23.2-23.9-23.5-13.7-.2-24.7 10.1-24.6 23.5H459zm110.1 50.1h-17.5c-.2-2.7-.3-5.4-.6-8.8-1.5 1.2-2.6 2.1-3.7 2.9-12.1 8.8-25.2 11.2-39 4.6-11.9-5.7-17.2-17.7-14.5-31.5 2.3-11.8 12-20 24.7-21.1 11.9-1 22.8 1.3 33 9.5-.3-5.7.1-11.5-1.1-17.1-1.3-6.5-8.8-11-17.1-11.5-10.8-.7-19.9 2.9-28.2 10.7-2.5-4.1-4.9-8-7.4-12.1 7.3-7.4 16.1-12 25.9-13.1 8-.9 16.4-.6 24.3 1.1 12.4 2.7 20.7 10.9 21.1 24 .6 20.8.1 41.4.1 62.4zm-17.7-25c0-9-1.6-12-9.3-14.6-4.8-1.6-10.1-2.4-15.1-2.1-9.1.5-15.3 7.2-15.6 15.3-.2 8.2 5.3 14.8 14.8 15.7 5.4.5 11.2-.5 16.5-2.1 5.9-1.7 10.3-5.6 8.7-12.2zM287 270.7c-7.9 7.6-15.7 12.6-25 13.2-6.5.4-13.4-.1-19.5-2-8.5-2.5-13.2-9.9-13.4-18.3-.6-22.2-.2-44.3-.2-66.9h17.8v5.2c0 16 .2 32.1-.1 48.1-.3 14.5 8.9 20.7 22.5 17.9 3.2-.6 6.4-1.9 9.3-3.4 5.8-3.1 9-7.2 8.7-14.7-.7-17.5-.2-35-.2-53h17.7v85.3H287v-11.4zm63.1 11.6h-17.8v-85.4h18.1v11.9c8.3-8.3 16.4-14.5 27.9-14.3v15.2c-7.3 2.4-14.3 4.2-20.9 7.1-5.4 2.4-7.8 6.8-7.5 13.3.5 15.3.2 30.7.2 46.1v6.1zM459 232.2"/></svg>